<svg id="Layer_1" data-name="Layer 1" xmlns="http://www.w3.org/2000/svg" viewBox="0 0 1012.4 241.98"><title>button</title><path d="M152.27,158.7c-2.61-26.28-16.21-39.38-29.39-45.91,6.69-5.62,23.7-23.85,19.82-61.51C137.92,4.66,92,5.72,92,5.72H0L0.31,235H86c28.17,0,33.5-5.68,33.5-5.68S157.6,212.31,152.27,158.7ZM50.53,48.57h23.3S94,48.12,96.1,68,83.16,94.17,83.16,94.17,81,96.27,69.91,96.27H50.53V48.57ZM91.23,189.85s-2.34,2.34-14.73,2.34h-26V139.13H81.12c2.52,0,22.32.91,24.51,21.59C108,182.82,91.23,189.85,91.23,189.85Z"/><path d="M262.44,235.31h50L282,153.22a75.38,75.38,0,0,0,7.35-6.55c14.8-15.08,22.07-35.21,21.6-59.85-0.74-39.24-21.26-65.34-59.34-75.47A157.77,157.77,0,0,0,226.44,7l-3-.27c-18.65-1.53-47-.68-47-0.68V235.31h50V173.12c3.88-.37,8-0.9,12.3-1.68Zm-36-184a103.47,103.47,0,0,1,13.84,2.55c18.82,5,26.3,14.48,26.66,33.79,0.24,12.56-2.71,21.78-9,28.2-2.7,2.75-9.78,9.94-31.49,12.84V51.3Z"/><path d="M409.81,239.83s74.46,0.72,74.46-90.74V6.13H433.59V152.42c0,32-23.77,31.3-23.77,31.3s-24.33,1.7-24.39-31,0-146.62,0-146.62H335.36v143C334.67,243.42,409.81,239.83,409.81,239.83Z"/><polygon points="962.17 6.23 962.17 76.29 913.37 76.29 913.37 6.23 863.13 6.23 863.13 235.63 913.37 235.63 913.37 119.15 962.17 119.15 962.17 235.63 1012.4 235.63 1012.4 6.23 962.17 6.23"/><path d="M591,1.69a78,78,0,0,0-35.18,9.88l-3.57-5.49H516.55V235.39h50.68V89.1c0-32,23.77-31.3,23.77-31.3s24.33-1.7,24.39,31,0,146.63,0,146.63h50.06v-143C666.15-1.9,591,1.69,591,1.69Z"/><path d="M810.18,175.75c-7.25,12.65-17,20.42-27.73,20.42-22.37,0-40.5-33.66-40.5-75.17s18.13-75.17,40.5-75.17c9,0,17.39,5.5,24.13,14.8l31.76-35.56C822.86,9.35,803.48,0,782.45,0c-50.66,0-91.73,54.17-91.73,121s41.07,121,91.73,121c23.64,0,45.19-11.8,61.45-31.17l-0.62.28Z"/><path d="M845.24,32.91l0.51,0.52-0.53-.65Z"/></svg>