<svg id="Layer_1" data-name="Layer 1" xmlns="http://www.w3.org/2000/svg" viewBox="0 0 919.24 233.93"><title>button</title><polygon points="752.08 48.41 752.08 5.12 614.49 5.06 614.49 233.93 752.08 233.93 752.08 190.98 664.34 190.98 664.34 140.96 721.5 140.96 733.55 98.42 664.34 98.42 664.34 48.41 752.08 48.41"/><path d="M328.4,0A78,78,0,0,0,293.22,9.9l-3.57-5.49H253.94V233.72h50.68V87.43c0-32,23.77-31.3,23.77-31.3s24.33-1.7,24.39,31,0,146.63,0,146.63h50.06v-143C403.54-3.57,328.4,0,328.4,0Z"/><path d="M508.86,0A78,78,0,0,0,473.69,9.9l-3.57-5.49H434.41V233.72h50.68V87.43c0-32,23.77-31.3,23.77-31.3s24.33-1.7,24.39,31,0,146.63,0,146.63h50.06v-143C584-3.57,508.86,0,508.86,0Z"/><path d="M869.24,233.93h50l-30.46-82.09a75.38,75.38,0,0,0,7.35-6.55c14.8-15.08,22.07-35.21,21.6-59.85C917,46.19,896.48,20.09,858.4,10a157.77,157.77,0,0,0-25.16-4.31l-3-.27c-18.65-1.53-47-.68-47-0.68V233.93h50V171.74c3.88-.37,8-0.9,12.3-1.68Zm-36-184a103.47,103.47,0,0,1,13.84,2.55c18.82,5,26.3,14.48,26.66,33.79,0.24,12.56-2.71,21.78-9,28.2-2.7,2.75-9.78,9.94-31.49,12.84V49.93Z"/><rect x="172.3" y="4.08" width="50.09" height="229.5"/><path d="M144.28,114.08c0-.06,0-0.12,0-0.18h0C141.85,14.11,72.73,4.19,50,4.08H0V233.37H50s56.58,6.65,82.09-53.21c7.19-14.81,11.94-33.72,12.24-57.91C144.37,119.46,144.34,116.75,144.28,114.08Zm-48.48,8.18c-2,61.51-43.16,57.59-43.16,57.59h0L50,179.79V62.24h2.89S97.84,60.75,95.79,122.26Z"/></svg>