<svg id="Layer_1" data-name="Layer 1" xmlns="http://www.w3.org/2000/svg" viewBox="0 0 1938.47 239.66"><title>button</title><rect x="614.3" y="4.95" width="50" height="229.32"/><polygon points="1769.71 191.58 1681.67 191.58 1681.67 5.24 1631.64 5.24 1631.64 234.27 1769.71 234.27 1769.71 191.58"/><polygon points="835.84 191.44 747.79 191.44 747.79 5.09 697.77 5.09 697.77 234.13 835.84 234.13 835.84 191.44"/><polygon points="1425.23 5.33 1378.8 5.33 1378.8 5.29 1328.58 5.29 1328.58 5.33 1282.15 5.33 1282.15 48.18 1328.58 48.18 1328.58 234.6 1378.8 234.6 1378.8 48.18 1425.23 48.18 1425.23 5.33"/><polygon points="1938.47 48.96 1938.47 5.67 1800.88 5.61 1800.88 234.48 1938.47 234.48 1938.47 191.53 1850.73 191.53 1850.73 141.51 1907.89 141.51 1919.94 98.97 1850.73 98.97 1850.73 48.96 1938.47 48.96"/><path d="M933.42,234.45V177.27c20.89-6.36,47.21-22.59,47.21-64V5H931.4V115.76c0,24-23.09,23.49-23.09,23.49s-23.63,1.28-23.69-23.24S884.62,5,884.62,5H836V113.26c-0.4,42.85,26.16,58.77,47.21,64.68v56.52h50.22Z"/><path d="M1552,234.45V177.27c20.89-6.36,47.21-22.59,47.21-64V5H1550V115.76c0,24-23.09,23.49-23.09,23.49s-23.63,1.28-23.69-23.24,0-111.06,0-111.06h-48.63V113.26c-0.4,42.85,26.16,58.77,47.21,64.68v56.52H1552Z"/><path d="M386.19,234.27V88c0-32,23.77-31.3,23.77-31.3s24.16,0.49,24.23,26.9c0,2.92-.19,150.69-0.19,150.69h50.68V88c0-32,23.77-31.3,23.77-31.3s24.33-1.7,24.39,31,0,146.62,0,146.62h50.06v-143C583.6-3,508.46.57,508.46,0.57S481.5,0.32,460,20C438.31-.78,410,0.57,410,0.57S335.5-.15,335.51,91.31v143h50.68Z"/><path d="M228.84,0.38S153.7-3.21,154.38,91.12v143h50.68V185.21h48.19c0,27.17,0,48.87,0,48.87H303.3v-143C304-3.21,228.84.38,228.84,0.38ZM205.07,87.79c0-32,23.77-31.3,23.77-31.3s24.33-1.7,24.39,31c0,10.92,0,30.94,0,52.75h-48.2V87.79Z"/><path d="M1259.21,130.64s-4.17-10.81-47.05-40c-35.62-24.25-10.4-41.8-10.4-41.8h0c19.94-11.5,51.45,8.71,51.45,8.71v-46c-45-18.75-73.26-9-73.26-9-25.24,5.63-39.66,25.71-43.26,41.9l-0.38,1s-5.81,22.22,4.77,42.68a4.88,4.88,0,0,1,.54,1.26c-0.1.06,3.22,5.18,2.58,4.3a81.29,81.29,0,0,0,10,10.5c2.93,2.21,6.65,4.74,12.5,9,34.1,24.81,43.76,28.36,46,39.5a28.08,28.08,0,0,1-7.61,24.71c-6.08,5.87-13.81,6.88-18.43,7.12-32.29,1.68-49.21-16.38-49.21-16.38v58c25.38,19.13,69.38,15.25,89,5.67s32.23-26.17,37.92-48.88C1271.71,153.14,1259.21,130.64,1259.21,130.64Z"/><polygon points="138.69 47.46 138.69 4.58 3.35 4.58 0 4.58 0 234.06 50.25 234.06 50.25 145.78 107.87 145.78 120.02 102.9 50.25 102.9 50.25 47.46 138.69 47.46"/><rect x="1028.11" y="88.95" width="70.71" height="42.54"/></svg>