<svg id="Layer_1" data-name="Layer 1" xmlns="http://www.w3.org/2000/svg" viewBox="0 0 833.3 241.98"><title>button</title><polygon points="138.07 192.36 50.03 192.36 50.03 6.02 0 6.02 0 235.05 138.07 235.05 138.07 192.36"/><path d="M230.71,239.83s74.46,0.72,74.46-90.74V6.13H254.48V152.42c0,32-23.77,31.3-23.77,31.3s-24.33,1.7-24.39-31,0-146.62,0-146.62H156.25v143C155.57,243.42,230.71,239.83,230.71,239.83Z"/><polygon points="783.07 6.23 783.07 76.29 734.26 76.29 734.26 6.23 684.03 6.23 684.03 235.63 734.26 235.63 734.26 119.15 783.07 119.15 783.07 235.63 833.3 235.63 833.3 6.23 783.07 6.23"/><path d="M411.91,1.69a78,78,0,0,0-35.18,9.88l-3.57-5.49H337.45V235.39h50.68V89.1c0-32,23.77-31.3,23.77-31.3s24.33-1.7,24.39,31,0,146.63,0,146.63h50.06v-143C487-1.9,411.91,1.69,411.91,1.69Z"/><path d="M631.08,175.75c-7.25,12.65-17,20.42-27.73,20.42-22.37,0-40.5-33.66-40.5-75.17S581,45.82,603.34,45.82c9,0,17.39,5.5,24.13,14.8l31.76-35.56C643.76,9.35,624.38,0,603.34,0c-50.66,0-91.73,54.17-91.73,121s41.07,121,91.73,121c23.64,0,45.19-11.8,61.45-31.17l-0.62.28Z"/><path d="M666.14,32.91l0.51,0.52-0.53-.65Z"/></svg>