<svg id="Layer_1" data-name="Layer 1" xmlns="http://www.w3.org/2000/svg" viewBox="0 0 853.91 234.05"><title>button</title><rect x="620.44" y="4.53" width="50.09" height="229.5"/><polygon points="416.94 48.2 416.94 4.91 279.35 4.85 279.35 233.72 416.94 233.72 416.94 190.77 329.2 190.77 329.2 140.75 386.36 140.75 398.41 98.22 329.2 98.22 329.2 48.2 416.94 48.2"/><path d="M50.68,233.72V87.43c0-32,23.77-31.3,23.77-31.3S98.61,56.62,98.69,83c0,2.92-.19,150.69-0.19,150.69h50.68V87.43c0-32,23.77-31.3,23.77-31.3s24.33-1.7,24.39,31,0,146.62,0,146.62h50.06v-143C248.1-3.57,173,0,173,0s-27-.25-48.44,19.47C102.81-1.33,74.46,0,74.46,0S0-.7,0,90.76v143H50.68Z"/><path d="M779.44,0.35S704.3-3.24,705,91.09v143h50.68V185.18h48.19c0,27.17,0,48.87,0,48.87H853.9v-143C854.58-3.24,779.44.35,779.44,0.35ZM755.67,87.76c0-32,23.77-31.3,23.77-31.3s24.33-1.7,24.39,31c0,10.92,0,30.94,0,52.75h-48.2V87.76Z"/><path d="M592.41,114.53c0-.06,0-0.12,0-0.18h0C590,14.56,520.87,4.65,498.13,4.53h-50V233.82h50s56.58,6.65,82.09-53.21c7.19-14.81,11.94-33.72,12.24-57.91C592.5,119.91,592.47,117.2,592.41,114.53Zm-48.48,8.18c-2,61.51-43.16,57.59-43.16,57.59h0l-2.64-.07V62.7H501S546,61.2,543.93,122.71Z"/></svg>