<svg id="Layer_1" data-name="Layer 1" xmlns="http://www.w3.org/2000/svg" viewBox="0 0 777.59 238.19"><title>button</title><polygon points="416.94 48.2 416.94 4.91 279.35 4.85 279.35 233.72 416.94 233.72 416.94 190.77 329.2 190.77 329.2 140.75 386.36 140.75 398.41 98.22 329.2 98.22 329.2 48.2 416.94 48.2"/><path d="M703.14,238.17s74.46,0.72,74.46-90.74V4.47H726.91V150.76c0,32-23.77,31.3-23.77,31.3s-24.33,1.7-24.39-31,0-146.62,0-146.62H628.68v143C628,241.76,703.14,238.17,703.14,238.17Z"/><path d="M50.68,233.72V87.43c0-32,23.77-31.3,23.77-31.3S98.61,56.62,98.69,83c0,2.92-.19,150.69-0.19,150.69h50.68V87.43c0-32,23.77-31.3,23.77-31.3s24.33-1.7,24.39,31,0,146.62,0,146.62h50.06v-143C248.1-3.57,173,0,173,0s-27-.25-48.44,19.47C102.81-1.33,74.46,0,74.46,0S0-.7,0,90.76v143H50.68Z"/><path d="M523.4,0A78,78,0,0,0,488.22,9.9l-3.57-5.49H448.94V233.72h50.68V87.43c0-32,23.77-31.3,23.77-31.3s24.33-1.7,24.39,31,0,146.62,0,146.62h50.06v-143C598.54-3.57,523.4,0,523.4,0Z"/></svg>