<?xml version="1.0" encoding="utf-8"?>
<!-- Generator: Adobe Illustrator 19.2.1, SVG Export Plug-In . SVG Version: 6.00 Build 0)  -->
<svg version="1.1" id="Layer_1" xmlns="http://www.w3.org/2000/svg" xmlns:xlink="http://www.w3.org/1999/xlink" x="0px" y="0px"
	 viewBox="0 0 1660.8 239.7" style="enable-background:new 0 0 1660.8 239.7;" xml:space="preserve">
<g>
	<polygon points="620.6,5.7 574.4,5.7 574.4,5.7 524.4,5.7 524.4,5.7 478.2,5.7 478.2,48.4 524.4,48.4 524.4,234 574.4,234 
		574.4,48.4 620.6,48.4 	"/>
	<polygon points="1660.8,5.6 1614.6,5.6 1614.6,5.6 1564.6,5.6 1564.6,5.6 1518.4,5.6 1518.4,48.3 1564.6,48.3 1564.6,233.9 
		1614.6,233.9 1614.6,48.3 1660.8,48.3 	"/>
	<polygon points="301.1,48.3 301.1,5.7 213.1,5.7 166.4,5.7 163.1,5.7 163.1,234 166.4,234 213.1,234 301.1,234 301.1,191.3 
		213.1,191.3 213.1,141.2 270.4,141.2 282.5,98.5 270.4,98.5 265.5,98.5 213.1,98.5 213.1,48.3 	"/>
	<path d="M1082.4,233.9l54.2-0.3l-32-79.9c17.8-14.3,32.8-36.9,32-72c-1.9-80.1-79-76.5-86.1-76h-47.2v228.3h50V177
		c1.8-0.3,4.2-0.9,7-1.6L1082.4,233.9z M1053.3,48.1c23.3-0.4,32.3,11.8,32.3,11.8s13,17,4.3,44.3c-6.9,21.9-28.4,28.8-36.7,30.7
		V48.1z"/>
	<path d="M897.1,239c0,0,74.5,0.7,74.5-90.7V5.3h-50.7c0,0,0,114.3,0,146.3s-23.8,31.3-23.8,31.3s-24.3,1.7-24.4-31
		c-0.1-32.7,0-146.6,0-146.6h-50.1v143C821.9,242.6,897.1,239,897.1,239z"/>
	<path d="M714.6,0.8c0,0-75.1-3.6-74.5,90.7v143h50.7c0,0,0-21.7,0-48.9H739c0,27.2,0,48.9,0,48.9h50.1v-143
		C789.7-2.8,714.6,0.8,714.6,0.8z M690.8,88.2c0-32,23.8-31.3,23.8-31.3s24.3-1.7,24.4,31c0,10.9,0,30.9,0,52.8h-48.2
		C690.8,118.8,690.8,98.9,690.8,88.2z"/>
	<path d="M1240,0.9c0,0-75.1-3.6-74.5,90.7v143h50.7c0,0,0-21.7,0-48.9h48.2c0,27.2,0,48.9,0,48.9h50.1v-143
		C1315.1-2.7,1240,0.9,1240,0.9z M1216.2,88.3c0-32,23.8-31.3,23.8-31.3s24.3-1.7,24.4,31c0,10.9,0,30.9,0,52.7h-48.2
		C1216.2,119,1216.2,99,1216.2,88.3z"/>
	<path d="M1423.4,0.8c0,0-17.3-0.2-35.2,9.9l-3.6-5.5h-35.7v86.3v143h50.7c0,0,0-114.3,0-146.3s23.8-31.3,23.8-31.3
		s24.3-1.7,24.4,31c0.1,32.7,0,146.6,0,146.6h50.1v-143C1498.5-2.8,1423.4,0.8,1423.4,0.8z"/>
	<path d="M453.2,130.6c0,0-4.2-10.8-47.1-40c-35.6-24.2-10.4-41.8-10.4-41.8h0c19.9-11.5,51.5,8.7,51.5,8.7v-46
		c-45-18.8-73.3-9-73.3-9c-25.2,5.6-39.7,25.7-43.3,41.9l-0.4,1c0,0-5.8,22.2,4.8,42.7c0,0.1,0.6,1.2,0.5,1.3
		c-0.1,0.1,3.2,5.2,2.6,4.3c4.3,5.2,4.8,5.7,10,10.5c2.9,2.2,6.6,4.7,12.5,9c34.1,24.8,43.8,28.4,46,39.5c1.7,8.6-1.3,18.6-7.6,24.7
		c-6.1,5.9-13.8,6.9-18.4,7.1c-32.3,1.7-49.2-16.4-49.2-16.4v58c25.4,19.1,69.4,15.2,89,5.7c19.6-9.6,32.2-26.2,37.9-48.9
		C465.7,153.1,453.2,130.6,453.2,130.6z"/>
	<path d="M86,234.5h50l-30.5-82.1c2.5-2,5-4.2,7.3-6.6c14.8-15.1,22.1-35.2,21.6-59.9c-0.7-39.2-21.3-65.3-59.3-75.5
		C67.1,8.4,58.4,7,50,6.2V6h-3C28.3,4.4,11.2,5.4,4.3,6H0v228.6h50v-62.2c3.9-0.4,8-0.9,12.3-1.7L86,234.5z M50,50.5
		c4.9,0.6,9.6,1.4,13.8,2.6c18.8,5,26.3,14.5,26.7,33.8c0.2,12.6-2.7,21.8-9,28.2c-2.7,2.8-9.8,9.9-31.5,12.8V50.5z"/>
</g>
</svg>
