<?xml version="1.0" encoding="utf-8"?>
<!-- Generator: Adobe Illustrator 19.2.1, SVG Export Plug-In . SVG Version: 6.00 Build 0)  -->
<svg version="1.1" id="Layer_1" xmlns="http://www.w3.org/2000/svg" xmlns:xlink="http://www.w3.org/1999/xlink" x="0px" y="0px"
	 viewBox="0 0 1178.1 242" style="enable-background:new 0 0 1178.1 242;" xml:space="preserve">
<g>
	<rect x="282.2" y="6.1" width="50" height="228.3"/>
	<g>
		<g>
			<g>
				<path d="M911.3,0c-50.5,0-91.5,54.2-91.5,121s41,121,91.5,121s91.5-54.2,91.5-121S961.8,0,911.3,0z M910.5,197.3
					c-22.4,0-40.5-34.1-40.5-76.2c0-42.1,18.1-76.2,40.5-76.2c22.4,0,40.5,34.1,40.5,76.2C951,163.2,932.9,197.3,910.5,197.3z"/>
			</g>
		</g>
	</g>
	<path d="M196.7,6.1c0,0,0,114.3,0,146.3S173,183.7,173,183.7s-24.2-0.5-24.2-26.9c0-2.9,0.2-150.7,0.2-150.7h-0.3H98.5h-0.3
		c0,0,0,114.3,0,146.3s-23.8,31.3-23.8,31.3s-24.3,1.7-24.4-31c-0.1-32.7,0-146.6,0-146.6H0v143c-0.7,94.3,74.5,90.7,74.5,90.7
		s27,0.2,48.4-19.5c21.7,20.8,50.1,19.5,50.1,19.5s74.5,0.7,74.5-90.7V6.1H196.7z"/>
	<path d="M440.4,1.5c0,0-17.3-0.2-35.2,9.9l-3.6-5.5h-35.7v86.3v143h50.7c0,0,0-114.3,0-146.3s23.8-31.3,23.8-31.3s24.3-1.7,24.4,31
		c0.1,32.7,0,146.6,0,146.6h50.1v-143C515.5-2.1,440.4,1.5,440.4,1.5z"/>
	<path d="M1103.6,1.2c0,0-17.3-0.2-35.2,9.9l-3.6-5.5h-35.7V92v143h50.7c0,0,0-114.3,0-146.3s23.8-31.3,23.8-31.3s24.3-1.7,24.4,31
		c0.1,32.7,0,146.6,0,146.6h50.1V92C1178.8-2.3,1103.6,1.2,1103.6,1.2z"/>
	<g>
		<path d="M678.3,93.9C678.3,93.9,678.3,93.8,678.3,93.9C678.3,93.9,678.3,93.9,678.3,93.9z"/>
		<path d="M797.6,141C797.6,141,797.6,141,797.6,141c-0.8-3.1-2.1-6-3.4-8.4c-0.6-1.2-1-1.8-1-1.8s-2.9-11.6-47.1-40
			C711.1,68.2,735.8,49,735.8,49h0c19.9-11.5,51.5,8.7,51.5,8.7v-46c-45-18.8-73.3-9-73.3-9c-25.2,5.6-39.7,25.7-43.3,41.9l-0.4,1
			c0,0-5.8,22.2,4.8,42.7c0,0.1,0.6,1.2,0.5,1.3c-0.1,0.1,2.7,4.4,2.7,4.4c4.3,5.1,4.8,5.6,9.9,10.4c2.9,2.2,6.6,4.7,12.5,9
			c34.1,24.8,43.8,28.4,46,39.5c1.7,8.6-1.3,18.6-7.6,24.7c-6.1,5.9-13.8,6.9-18.4,7.1c-32.3,1.7-49.2-16.4-49.2-16.4v58
			c25.4,19.1,69.4,15.2,89,5.7s33.2-26.2,38.9-48.9C803.7,165.4,800.8,150.3,797.6,141z"/>
	</g>
</g>
</svg>
