<?xml version="1.0" encoding="utf-8"?>
<!-- Generator: Adobe Illustrator 19.2.1, SVG Export Plug-In . SVG Version: 6.00 Build 0)  -->
<svg version="1.1" id="Layer_1" xmlns="http://www.w3.org/2000/svg" xmlns:xlink="http://www.w3.org/1999/xlink" x="0px" y="0px"
	 viewBox="0 0 1001.4 233.8" style="enable-background:new 0 0 1001.4 233.8;" xml:space="preserve">
<g>
	<polygon points="670.8,47.7 670.8,5 532.8,5 532.8,233.3 670.8,233.3 670.8,190.7 582.8,190.7 582.8,140.5 640.1,140.5 652.2,97.8 
		582.8,97.8 582.8,47.7 	"/>
	<path d="M511.4,233.1l-52.3-123.4l51-104.9h-50.3l-48.3,101.7V4.7h-50v228.3h50V126.7l42.7,106.7L511.4,233.1z"/>
	<path d="M954.4,232.8v-56.9c20.8-6.3,47-22.5,47-63.7V5.3h-49c0,0,0,85.4,0,109.3s-23,23.4-23,23.4s-23.5,1.3-23.6-23.1
		c-0.1-24.4,0-109.6,0-109.6h-48.4v106.8c-0.4,42.7,26,58.5,47,64.4v56.3H954.4z"/>
	<path d="M254.5,0c0,0-75.1-3.6-74.5,90.7v143h50.7c0,0,0-21.7,0-48.9h48.2c0,27.2,0,48.9,0,48.9H329v-143
		C329.6-3.6,254.5,0,254.5,0z M230.7,87.4c0-32,23.8-31.3,23.8-31.3s24.3-1.7,24.4,31c0,10.9,0,30.9,0,52.7h-48.2
		C230.7,118.1,230.7,98.1,230.7,87.4z"/>
	<path d="M785.4,233.8h50l-30.5-82.1c2.5-2,5-4.2,7.3-6.6c14.8-15.1,22.1-35.2,21.6-59.9c-0.7-39.2-21.3-65.3-59.3-75.5
		c-8.1-2.2-16.7-3.5-25.2-4.3V5.2h-3c-18.7-1.5-47,0-47,0v228.6h50v-62.2c3.9-0.4,8-0.9,12.3-1.7L785.4,233.8z M749.4,49.8
		c4.9,0.6,9.6,1.4,13.8,2.6c18.8,5,26.3,14.5,26.7,33.8c0.2,12.6-2.7,21.8-9,28.2c-2.7,2.8-9.8,9.9-31.5,12.8V49.8z"/>
	<path d="M151.6,157.3c-2.6-26.2-16.1-39.2-29.3-45.7c6.7-5.6,23.6-23.7,19.7-61.2C137.3,3.9,91.6,4.9,91.6,4.9l-91.3,0H0l0.3,228.3
		h85.4c14.4,0,22.8-1.5,27.6-3l0,0l0,0c2.4-0.7,3.9-1.5,4.7-2c3.2-1.5,7.5-4,11-7.5c0,0,0,0,0,0
		C139.9,211.8,155.1,192.4,151.6,157.3z M50.3,47.6h23.2l0,0c0,0,20.1-0.4,22.2,19.3C97.8,86.7,82.8,93,82.8,93s-2.1,2.1-13.2,2.1
		H50.3V47.6z M90.8,188.3c0,0-2.3,2.3-14.7,2.3H50.3v-52.8h30.5c2.5,0,22.2,0.9,24.4,21.5C107.5,181.3,90.8,188.3,90.8,188.3z"/>
</g>
</svg>
