<svg id="Layer_1" data-name="Layer 1" xmlns="http://www.w3.org/2000/svg" viewBox="0 0 1631.48 242.02"><title>button</title><path d="M1267.57,0c-50.53,0-91.5,54.17-91.5,121s41,121,91.5,121,91.5-54.17,91.5-121S1318.1,0,1267.57,0Zm-0.79,197.3c-22.37,0-40.5-34.14-40.5-76.25s18.13-76.25,40.5-76.25c9.37,0,18,6,24.86,16,9.52,14,15.64,35.73,15.64,60.2C1307.28,163.16,1289.14,197.3,1266.78,197.3Z"/><path d="M1580.79,7.18V153.47c0,32-23.77,31.3-23.77,31.3s-24.16-.49-24.23-26.9c0-2.92.19-150.69,0.19-150.69h-50.68V153.47c0,32-23.77,31.3-23.77,31.3s-24.33,1.7-24.39-31,0-146.62,0-146.62h-50.06v143c-0.68,94.33,74.46,90.74,74.46,90.74s27,0.25,48.44-19.47c21.71,20.82,50.06,19.47,50.06,19.47s74.46,0.72,74.46-90.74V7.18h-50.68Z"/><path d="M1074.86,3a78,78,0,0,0-35.18,9.88l-3.57-5.49H1000.4V236.68h50.68V90.38c0-32,23.77-31.3,23.77-31.3s24.33-1.7,24.39,31,0,146.63,0,146.63h50.06v-143C1150-.62,1074.86,3,1074.86,3Z"/><polygon points="675.82 50.6 675.82 7.31 538.23 7.26 538.23 236.12 675.82 236.12 675.82 193.18 588.08 193.18 588.08 143.16 645.24 143.16 657.29 100.62 588.08 100.62 588.08 50.6 675.82 50.6"/><path d="M91.5,0C41,0,0,54.21,0,121S41,242,91.5,242,183,187.85,183,121,142,0,91.5,0Zm-0.79,197.3c-22.37,0-40.5-34.14-40.5-76.25s18.13-76.25,40.5-76.25c9.37,0,18,6,24.86,16,9.52,14,15.64,35.73,15.64,60.2C131.21,163.2,113.08,197.34,90.71,197.34Z"/><path d="M293.08,236h50l-30.46-82.09a75.38,75.38,0,0,0,7.35-6.55c14.8-15.08,22.07-35.21,21.6-59.85C340.83,48.28,320.31,22.18,282.23,12a157.77,157.77,0,0,0-25.16-4.31l-3-.27c-18.65-1.53-47-.68-47-0.68V236h50V173.83c3.88-.37,8-0.9,12.3-1.68Zm-36-184a103.47,103.47,0,0,1,13.84,2.55c18.82,5,26.3,14.48,26.66,33.79,0.24,12.56-2.71,21.78-9,28.2-2.7,2.75-9.78,9.94-31.49,12.84V52Z"/><path d="M793.59,236.12h50L813.13,154a75.38,75.38,0,0,0,7.35-6.55c14.8-15.08,22.07-35.21,21.6-59.85-0.74-39.24-21.26-65.34-59.34-75.47a157.77,157.77,0,0,0-25.16-4.31l-3-.27c-18.65-1.53-47-.68-47-0.68V236.12h50V173.94c3.88-.37,8-0.9,12.3-1.68Zm-36-184a103.47,103.47,0,0,1,13.84,2.55c18.82,5,26.3,14.48,26.66,33.79,0.24,12.56-2.71,21.78-9,28.2-2.7,2.75-9.78,9.94-31.49,12.84V52.12Z"/><path d="M512.83,116.64c0-.06,0-0.12,0-0.18h0C510.4,16.67,441.28,6.75,418.55,6.64h-50V235.93h50s56.58,6.65,82.09-53.21c7.19-14.81,11.94-33.72,12.24-57.91C512.92,122,512.89,119.3,512.83,116.64Zm-48.48,8.18c-2,61.51-43.16,57.59-43.16,57.59h0l-2.64-.07V64.8h2.89S466.39,63.31,464.35,124.81Z"/></svg>