<svg id="Layer_1" data-name="Layer 1" xmlns="http://www.w3.org/2000/svg" viewBox="0 0 3050.31 243.98"><title>button</title><polygon points="1672.47 236.87 1632.54 236.87 1706.94 7.41 1746.85 7.44 1672.47 236.87"/><rect x="2636.22" y="7.56" width="50" height="229.34"/><polygon points="1276.47 50.16 1276.47 6.87 1138.88 6.81 1138.88 235.68 1276.47 235.68 1276.47 192.73 1188.73 192.73 1188.73 142.71 1245.89 142.71 1257.94 100.17 1188.73 100.17 1188.73 50.16 1276.47 50.16"/><polygon points="457.67 50.89 457.67 7.59 320.09 7.54 320.09 236.41 457.67 236.41 457.67 193.46 369.94 193.46 369.94 143.44 427.1 143.44 439.14 100.9 369.94 100.9 369.94 50.89 457.67 50.89"/><polygon points="2442.03 51.28 2442.03 7.98 2304.45 7.93 2304.45 236.79 2442.03 236.79 2442.03 193.85 2354.3 193.85 2354.3 143.83 2411.46 143.83 2423.51 101.29 2354.3 101.29 2354.3 51.28 2442.03 51.28"/><path d="M692.15,0c-50.53,0-91.5,54.17-91.5,121s41,121,91.5,121,91.5-54.17,91.5-121S742.69,0,692.15,0Zm-0.79,197.3c-22.37,0-40.5-34.14-40.5-76.25S669,44.8,691.36,44.8c9.37,0,18,6,24.86,16,9.52,14,15.64,35.73,15.64,60.2C731.86,163.16,713.73,197.3,691.36,197.3Z"/><polygon points="2273.5 7.45 2130.78 7.45 2130.78 50.31 2177.1 50.31 2177.1 236.79 2227.18 236.79 2227.18 50.31 2273.5 50.31 2273.5 7.45"/><path d="M2036.3,3.15s-75.14-3.59-74.46,90.74v143h50.68V188h48.19c0,27.17,0,48.87,0,48.87h50.06v-143C2111.44-.44,2036.3,3.15,2036.3,3.15Zm-23.77,87.41c0-32,23.77-31.3,23.77-31.3s24.33-1.7,24.39,31c0,10.92,0,30.94,0,52.75h-48.2V90.56Z"/><path d="M2791.79,3.2a78,78,0,0,0-35.18,9.88L2753,7.6h-35.71V236.91H2768V90.61c0-32,23.77-31.3,23.77-31.3s24.33-1.7,24.39,31,0,146.62,0,146.62h50.06v-143C2866.93-.39,2791.79,3.2,2791.79,3.2Z"/><path d="M1595.28,133.32s-4.17-10.81-47.05-40c-35.62-24.25-10.4-41.8-10.4-41.8h0c19.94-11.5,51.45,8.71,51.45,8.71v-46c-45-18.75-73.26-9-73.26-9-25.24,5.63-39.66,25.71-43.26,41.9l-0.38,1s-5.81,22.22,4.77,42.68a4.88,4.88,0,0,1,.54,1.26c-0.1.06,3.22,5.18,2.58,4.3a81.29,81.29,0,0,0,10,10.5c2.93,2.21,6.65,4.74,12.5,9,34.1,24.81,43.76,28.36,46,39.5a28.08,28.08,0,0,1-7.61,24.71c-6.08,5.87-13.81,6.88-18.43,7.12-32.29,1.68-49.21-16.38-49.21-16.38v58c25.38,19.13,69.38,15.25,89,5.67s32.23-26.17,37.92-48.88C1607.78,155.82,1595.28,133.32,1595.28,133.32Z"/><path d="M893.73,236h50l-30.46-82.09a75.38,75.38,0,0,0,7.35-6.55c14.8-15.08,22.07-35.21,21.6-59.85C941.48,48.24,921,22.14,882.89,12A157.77,157.77,0,0,0,857.73,7.7l-3-.27c-18.65-1.53-47-.68-47-0.68V236h50V173.79c3.88-.37,8-0.9,12.3-1.68Zm-36-184a103.47,103.47,0,0,1,13.84,2.55c18.82,5,26.3,14.48,26.66,33.79,0.24,12.56-2.71,21.78-9,28.2-2.7,2.75-9.78,9.94-31.49,12.84V52Z"/><path d="M245.56,236.41h50l-30.46-82.09a75.38,75.38,0,0,0,7.35-6.55c14.8-15.08,22.07-35.21,21.6-59.85-0.74-39.24-21.26-65.34-59.34-75.47a157.77,157.77,0,0,0-25.16-4.31l-3-.27c-18.65-1.53-47-.68-47-0.68V236.41h50V174.22c3.88-.37,8-0.9,12.3-1.68Zm-36-184A103.47,103.47,0,0,1,223.4,55c18.82,5,26.3,14.48,26.66,33.79,0.24,12.56-2.71,21.78-9,28.2-2.7,2.75-9.78,9.94-31.49,12.84V52.4Z"/><path d="M2558.56,236.71h50l-30.46-82.09a75.38,75.38,0,0,0,7.35-6.55c14.8-15.08,22.07-35.21,21.6-59.85-0.74-39.24-21.26-65.34-59.34-75.47a157.77,157.77,0,0,0-25.16-4.31l-3-.27c-18.65-1.53-47-.68-47-0.68V236.71h50V174.52c3.88-.37,8-0.9,12.3-1.68Zm-36-184a103.47,103.47,0,0,1,13.84,2.55c18.82,5,26.3,14.48,26.66,33.79,0.24,12.56-2.71,21.78-9,28.2-2.7,2.75-9.78,9.94-31.49,12.84V52.7Z"/><path d="M1394.24,236.08h50L1413.79,154a75.38,75.38,0,0,0,7.35-6.55c14.8-15.08,22.07-35.21,21.6-59.85-0.74-39.24-21.26-65.34-59.34-75.47a157.77,157.77,0,0,0-25.16-4.31l-3-.27c-18.65-1.53-47-.68-47-0.68V236.08h50V173.9c3.88-.37,8-0.9,12.3-1.68Zm-36-184a103.47,103.47,0,0,1,13.84,2.55c18.82,5,26.3,14.48,26.66,33.79,0.24,12.56-2.71,21.78-9,28.2-2.7,2.75-9.78,9.94-31.49,12.84V52.08Z"/><path d="M50,6.87V6.82H0V235.16H50V182.44c4.28-.17,83.37-4.45,84.57-85.1C135.76,18,73.91,7.62,50,6.87ZM89.7,97.34c-1.82,45.18-36.84,44.27-39.7,44.12V50.74l0,0.63S91.6,50.23,89.7,97.34Z"/><path d="M1910.44,176.73c-7.25,12.65-17,20.42-27.73,20.42-22.37,0-40.5-33.66-40.5-75.17s18.13-75.17,40.5-75.17c9,0,17.39,5.5,24.13,14.8L1938.6,26C1923.12,10.33,1903.74,1,1882.71,1,1832,1,1791,55.15,1791,122s41.07,121,91.73,121c23.64,0,45.19-11.8,61.45-31.17l-0.62.28Z"/><path d="M1945.5,33.89l0.51,0.52-0.53-.65Z"/><path d="M1113.48,116.6c0-.06,0-0.12,0-0.18h0C1111.05,16.63,1041.94,6.71,1019.2,6.6h-50V235.89h50s56.58,6.65,82.09-53.21c7.19-14.81,11.94-33.72,12.24-57.91C1113.57,122,1113.54,119.26,1113.48,116.6ZM1065,124.77c-2,61.51-43.16,57.59-43.16,57.59h0l-2.64-.07V64.76h2.89S1067,63.27,1065,124.77Z"/><path d="M3050.31,108.26h-75.54l-12.08,42.67h40.45v34.81c-6.39,7.84-14,12.43-22.28,12.43-22.37,0-40.5-33.66-40.5-75.17s18.13-75.17,40.5-75.17c9,0,17.39,5.5,24.13,14.8l31.76-35.56C3021.28,11.35,3001.9,2,2980.86,2c-50.66,0-91.73,54.17-91.73,121s41.07,121,91.73,121c23.64,0,45.19-11.8,61.45-31.17l-0.62.28,0.21-.36,0.41,0.08s7.65-11.52,7.82-22.19h0c0.15-1,.18-1.62.18-1.62V108.26Z"/><path d="M3044.17,35.43l-0.53-.65,0,0.13Z"/><rect x="489.27" y="95.89" width="70.71" height="42.54"/></svg>