<svg id="Layer_1" data-name="Layer 1" xmlns="http://www.w3.org/2000/svg" viewBox="0 0 1915.38 242.06"><title>button</title><polygon points="909.45 6.06 880.46 148.51 852.04 5.93 800.6 6.06 860.24 235.23 901.08 235.23 961.27 6.06 909.45 6.06"/><rect x="1325.35" y="6.15" width="50.09" height="229.5"/><polygon points="1291.43 6.46 1245.06 6.46 1245.06 6.42 1194.92 6.42 1194.92 6.46 1148.55 6.46 1148.55 49.25 1194.92 49.25 1194.92 235.41 1245.06 235.41 1245.06 49.25 1291.43 49.25 1291.43 6.46"/><polygon points="622.02 49.5 622.02 6.2 484.44 6.15 484.44 235.01 622.02 235.01 622.02 192.07 534.29 192.07 534.29 142.05 591.45 142.05 603.5 99.51 534.29 99.51 534.29 49.5 622.02 49.5"/><polygon points="301.5 49.26 301.5 5.97 163.91 5.91 163.91 234.78 301.5 234.78 301.5 191.83 213.76 191.83 213.76 141.81 270.92 141.81 282.97 99.27 213.76 99.27 213.76 49.26 301.5 49.26"/><path d="M1491.05,0.08c-50.53,0-91.5,54.17-91.5,121s41,121,91.5,121,91.5-54.17,91.5-121S1541.59,0.08,1491.05.08Zm-0.79,197.3c-22.37,0-40.5-34.14-40.5-76.25s18.13-76.25,40.5-76.25c9.37,0,18,6,24.86,16,9.52,14,15.64,35.73,15.64,60.2C1530.76,163.25,1512.63,197.39,1490.26,197.39Z"/><path d="M1050.32,1.78s-75.14-3.59-74.46,90.74v143h50.68V186.61h48.19c0,27.17,0,48.87,0,48.87h50.06v-143C1125.45-1.81,1050.32,1.78,1050.32,1.78Zm-23.77,87.41c0-32,23.77-31.3,23.77-31.3s24.33-1.7,24.39,31c0,10.92,0,30.94,0,52.75h-48.2V89.19Z"/><path d="M1681.78,2.1A78,78,0,0,0,1646.61,12L1643,6.5h-35.71V235.8H1658V89.51c0-32,23.77-31.3,23.77-31.3s24.33-1.7,24.39,31,0,146.63,0,146.63h50.06v-143C1756.92-1.49,1681.78,2.1,1681.78,2.1Z"/><path d="M455.37,130.64s-4.17-10.81-47.05-40c-35.62-24.25-10.4-41.8-10.4-41.8h0c19.94-11.5,51.45,8.71,51.45,8.71v-46c-45-18.75-73.26-9-73.26-9-25.24,5.63-39.66,25.71-43.26,41.9l-0.38,1s-5.81,22.22,4.77,42.68a4.88,4.88,0,0,1,.54,1.26c-0.1.06,3.22,5.18,2.58,4.3a81.29,81.29,0,0,0,10,10.5c2.93,2.21,6.65,4.74,12.5,9,34.1,24.81,43.76,28.36,46,39.5a28.08,28.08,0,0,1-7.61,24.71c-6.08,5.87-13.81,6.88-18.43,7.12-32.29,1.68-49.21-16.38-49.21-16.38v58c25.38,19.13,69.38,15.25,89,5.67s32.23-26.17,37.92-48.88C467.87,153.14,455.37,130.64,455.37,130.64Z"/><path d="M1907.9,131.89s-4.17-10.81-47.05-40c-35.62-24.25-10.4-41.8-10.4-41.8h0c19.94-11.5,51.45,8.71,51.45,8.71v-46c-45-18.75-73.26-9-73.26-9-25.24,5.63-39.66,25.71-43.26,41.9l-0.38,1s-5.81,22.22,4.77,42.68a4.88,4.88,0,0,1,.54,1.26c-0.1.06,3.22,5.18,2.58,4.3a81.29,81.29,0,0,0,10,10.5c2.93,2.21,6.65,4.74,12.5,9,34.1,24.81,43.76,28.36,46,39.5a28.08,28.08,0,0,1-7.61,24.71c-6.08,5.87-13.81,6.88-18.43,7.12-32.29,1.68-49.21-16.38-49.21-16.38v58c25.38,19.13,69.38,15.25,89,5.67s32.23-26.17,37.92-48.88C1920.4,154.39,1907.9,131.89,1907.9,131.89Z"/><path d="M739.19,235.32h50l-30.46-82.09a75.38,75.38,0,0,0,7.35-6.55c14.8-15.08,22.07-35.21,21.6-59.85-0.74-39.24-21.26-65.34-59.34-75.47A157.77,157.77,0,0,0,703.19,7l-3-.27c-18.65-1.53-47-.68-47-0.68V235.32h50V173.13c3.88-.37,8-0.9,12.3-1.68Zm-36-184A103.47,103.47,0,0,1,717,53.87c18.82,5,26.3,14.48,26.66,33.79,0.24,12.56-2.71,21.78-9,28.2-2.7,2.75-9.78,9.94-31.49,12.84V51.31Z"/><path d="M86,234.61h50l-30.46-82.09a75.38,75.38,0,0,0,7.35-6.55c14.8-15.08,22.07-35.21,21.6-59.85-0.74-39.24-21.26-65.34-59.34-75.47A157.77,157.77,0,0,0,50,6.33l-3-.27C28.3,4.53,0,5.38,0,5.38V234.61H50V172.42c3.88-.37,8-0.9,12.3-1.68Zm-36-184a103.47,103.47,0,0,1,13.84,2.55c18.82,5,26.3,14.48,26.66,33.79,0.24,12.56-2.71,21.78-9,28.2C78.79,117.9,71.72,125.1,50,128V50.61Z"/></svg>